<svg xmlns="http://www.w3.org/2000/svg" viewBox="0 0 360 300" width="360" height="300" role="img"><title>Try the tasks</title><defs><marker id="head-ink" markerWidth="8" markerHeight="8" refX="6" refY="4" orient="auto"><path d="M0 0 L8 4 L0 8 Z" fill="#6c7570"/></marker><marker id="head-warm" markerWidth="8" markerHeight="8" refX="6" refY="4" orient="auto"><path d="M0 0 L8 4 L0 8 Z" fill="#b35c3a"/></marker><marker id="head-accent" markerWidth="8" markerHeight="8" refX="6" refY="4" orient="auto"><path d="M0 0 L8 4 L0 8 Z" fill="#2b6151"/></marker></defs><rect width="360" height="300" fill="#ffffff"/><text x="18.0" y="28.0" font-family="ui-monospace, Menlo, Consolas, monospace" font-size="12" font-weight="600" fill="#2b6151" text-anchor="start">01</text><text x="44.0" y="28.0" font-family="-apple-system, 'Segoe UI', Helvetica, Arial, sans-serif" font-size="14" font-weight="600" fill="#202a26" text-anchor="start">Try the tasks</text><path d="M14 272 H346" stroke="#202a26" stroke-width="2"/><g transform="translate(88.0 272) rotate(0.0) scale(0.88)"><rect x="-22.0" y="-34" width="10" height="27" fill="#ffffff" stroke="#202a26" stroke-width="2.5"/><rect x="-30" y="-8" width="26" height="8" fill="#202a26"/><rect x="12.0" y="-34" width="10" height="27" fill="#ffffff" stroke="#202a26" stroke-width="2.5"/><rect x="4" y="-8" width="26" height="8" fill="#202a26"/><path d="M-42 -96 L-56.0 -70.0 L-58 -52" fill="none" stroke="#202a26" stroke-width="10" stroke-linecap="round" stroke-linejoin="round"/><path d="M-42 -96 L-56.0 -70.0 L-58 -52" fill="none" stroke="#ffffff" stroke-width="5" stroke-linecap="round" stroke-linejoin="round"/><g transform="translate(-58.0 -52.0) rotate(96.3) scale(1.0)"><path d="M-4 -5 H6 L10 -11 H18 L21 -5 H13 V5 H21 L18 11 H10 L6 5 H-4 Z" fill="#ffffff" stroke="#202a26" stroke-width="2" stroke-linejoin="round"/></g><path d="M42 -96 L58.0 -83.0 L62 -78" fill="none" stroke="#202a26" stroke-width="10" stroke-linecap="round" stroke-linejoin="round"/><path d="M42 -96 L58.0 -83.0 L62 -78" fill="none" stroke="#ffffff" stroke-width="5" stroke-linecap="round" stroke-linejoin="round"/><circle cx="62" cy="-78" r="7.5" fill="#ffffff" stroke="#202a26" stroke-width="2.5"/><rect x="-42" y="-108" width="84" height="76" fill="#ffffff" stroke="#202a26" stroke-width="3"/><rect x="-30" y="-98" width="60" height="36" fill="#dfe9e1" stroke="#202a26" stroke-width="2"/><rect x="-22" y="-90" width="30" height="4" fill="#2b6151"/><rect x="-22" y="-81" width="40" height="4" fill="#6c7570"/><rect x="-22" y="-72" width="22" height="4" fill="#6c7570"/><text x="0.0" y="-48.0" font-family="ui-monospace, Menlo, Consolas, monospace" font-size="10" font-weight="600" fill="#6c7570" text-anchor="middle">v1</text><rect x="-9" y="-116" width="18" height="9" fill="#ffffff" stroke="#202a26" stroke-width="2.5"/><rect x="-46" y="-154" width="8" height="20" fill="#dfe9e1" stroke="#202a26" stroke-width="2"/><rect x="38" y="-154" width="8" height="20" fill="#dfe9e1" stroke="#202a26" stroke-width="2"/><rect x="-38" y="-170" width="76" height="55" fill="#ffffff" stroke="#202a26" stroke-width="3"/><path d="M0 -170 V-188" stroke="#202a26" stroke-width="2.5"/><circle cx="0" cy="-193" r="5.5" fill="#2b6151" stroke="#202a26" stroke-width="2"/><circle cx="-12" cy="-145" r="5.5" fill="#202a26"/><path d="M-23 -156 L-8 -160" stroke="#202a26" stroke-width="2.5" stroke-linecap="round"/><circle cx="-27" cy="-128" r="4" fill="#f4e4d9"/><circle cx="18" cy="-145" r="5.5" fill="#202a26"/><path d="M7 -160 L22 -156" stroke="#202a26" stroke-width="2.5" stroke-linecap="round"/><circle cx="27" cy="-128" r="4" fill="#f4e4d9"/><path d="M-7 -126 H7" stroke="#202a26" stroke-width="2.5" stroke-linecap="round"/><circle cx="-15" cy="-146" r="11" fill="none" stroke="#202a26" stroke-width="2"/><circle cx="15" cy="-146" r="11" fill="none" stroke="#202a26" stroke-width="2"/><path d="M-4 -147 Q0 -150 4 -147 M-26 -148 H-38 M26 -148 H38" fill="none" stroke="#202a26" stroke-width="2"/></g><rect x="206" y="144" width="92" height="84" fill="#ffffff" stroke="#202a26" stroke-width="1.8"/><rect x="201" y="149" width="92" height="84" fill="#ffffff" stroke="#202a26" stroke-width="1.8"/><rect x="196" y="154" width="92" height="84" fill="#ffffff" stroke="#202a26" stroke-width="2.2"/><text x="204.0" y="172.0" font-family="-apple-system, 'Segoe UI', Helvetica, Arial, sans-serif" font-size="9.5" font-weight="400" fill="#202a26" text-anchor="start">How many …?</text><text x="204.0" y="189.0" font-family="-apple-system, 'Segoe UI', Helvetica, Arial, sans-serif" font-size="9.5" font-weight="400" fill="#202a26" text-anchor="start">¿Cuántos …?</text><text x="204.0" y="206.0" font-family="-apple-system, 'Segoe UI', Helvetica, Arial, sans-serif" font-size="9.5" font-weight="400" fill="#202a26" text-anchor="start">一共多少…？</text><text x="204.0" y="223.0" font-family="-apple-system, 'Segoe UI', Helvetica, Arial, sans-serif" font-size="9.5" font-weight="400" fill="#202a26" text-anchor="start">Combien …?</text><text x="242.0" y="132.0" font-family="-apple-system, 'Segoe UI', Helvetica, Arial, sans-serif" font-size="9.5" font-weight="400" fill="#6c7570" text-anchor="middle">word problems, many languages</text><rect x="196" y="246" width="92" height="22" fill="#f0f4ee" stroke="#202a26" stroke-width="1.8"/><path d="M205 252 L215 262 M215 252 L205 262" stroke="#b35c3a" stroke-width="2.6" stroke-linecap="round"/><path d="M226 252 L236 262 M236 252 L226 262" stroke="#b35c3a" stroke-width="2.6" stroke-linecap="round"/><path d="M247 257 L251 261 L258 252" fill="none" stroke="#2b6151" stroke-width="2.6" stroke-linecap="round" stroke-linejoin="round"/><path d="M268 252 L278 262 M278 252 L268 262" stroke="#b35c3a" stroke-width="2.6" stroke-linecap="round"/><rect x="334" y="148" width="13" height="116" fill="#ffffff" stroke="#202a26" stroke-width="2"/><rect x="336.5" y="245.6" width="8" height="15.9" fill="#2b6151"/><path d="M329 177.0 h4" stroke="#6c7570" stroke-width="1.2"/><path d="M329 206.0 h4" stroke="#6c7570" stroke-width="1.2"/><path d="M329 235.0 h4" stroke="#6c7570" stroke-width="1.2"/><text x="340.5" y="140.0" font-family="-apple-system, 'Segoe UI', Helvetica, Arial, sans-serif" font-size="9.5" font-weight="400" fill="#6c7570" text-anchor="middle">score</text></svg>
